<?xml version="1.0" encoding="UTF-8"?>
<svg version="1.1" xmlns="http://www.w3.org/2000/svg" width="225" height="225">
<path d="M0 0 C74.25 0 148.5 0 225 0 C225 74.25 225 148.5 225 225 C150.75 225 76.5 225 0 225 C0 150.75 0 76.5 0 0 Z " fill="#050504" transform="translate(0,0)"/>
<path d="M0 0 C74.25 0 148.5 0 225 0 C225 74.25 225 148.5 225 225 C150.75 225 76.5 225 0 225 C0 150.75 0 76.5 0 0 Z M125 19 C117.73323884 28.44526607 115.96769668 38.00837547 115.6875 49.625 C115.42449059 59.68157502 112.75603902 67.75662272 109 77 C105.26763685 86.78373135 104.21391507 97.04455756 108 107 C107.41476563 107.22171875 106.82953125 107.4434375 106.2265625 107.671875 C103.31565786 109.40820408 102.15528956 111.37957719 100.375 114.25 C99.78460938 115.18328125 99.19421875 116.1165625 98.5859375 117.078125 C94.71571598 124.20848385 94.69452281 130.47190005 94.75 138.4375 C94.74226563 139.54416016 94.73453125 140.65082031 94.7265625 141.79101562 C94.74040352 147.5800225 95.02121009 152.54262305 97 158 C96.22809326 157.99476318 95.45618652 157.98952637 94.66088867 157.98413086 C91.16976737 157.96336758 87.67865905 157.95034189 84.1875 157.9375 C82.97255859 157.92912109 81.75761719 157.92074219 80.50585938 157.91210938 C79.34248047 157.90888672 78.17910156 157.90566406 76.98046875 157.90234375 C75.90692139 157.89710693 74.83337402 157.89187012 73.72729492 157.88647461 C70.90500635 157.87805412 70.90500635 157.87805412 68 159 C67.79375 158.34 67.5875 157.68 67.375 157 C64.86926475 151.53294128 61.74231201 147.09701127 56.625 143.875 C54 142 54 142 53.25 139 C54.29125637 134.83497451 56.43931026 134.23415827 60 132 C61.64589221 129.27576461 62.86439142 127.09308737 63.2578125 123.921875 C64 122 64 122 66.28515625 120.953125 C67.20167969 120.72109375 68.11820312 120.4890625 69.0625 120.25 C69.98160156 120.00765625 70.90070313 119.7653125 71.84765625 119.515625 C72.55792969 119.34546875 73.26820312 119.1753125 74 119 C74.65603396 109.65151611 72.61074024 99.24533278 68 91 C68.86882812 91.05800781 69.73765625 91.11601563 70.6328125 91.17578125 C78.07875272 91.72024994 78.07875272 91.72024994 84.75 89 C87.51149285 85.31800954 88.54864746 82.59604671 88 78 C86.39182692 74.78365384 85.02289934 72.75012618 82.125 70.625 C79.36226686 69.81243143 76.86228888 69.86989596 74 70 C73.9175 69.13375 73.835 68.2675 73.75 67.375 C72.29058638 60.80763869 68.46410688 57.07603923 63.13671875 53.32421875 C57.15859871 49.61931437 51.03696178 47.77668711 44 49 C37.60589068 51.20655613 32.88888815 54.55555637 28.375 59.546875 C25.75211979 62.3187825 23.41017255 62.13749175 19.75 62.3125 C13.55412585 62.83894682 10.28612731 64.73932658 5.87304688 69.10327148 C3.4102002 72.91214476 3.42371988 76.20623909 3.46875 80.59765625 C3.4649231 81.42776718 3.46109619 82.25787811 3.45715332 83.11314392 C3.45443673 84.86898003 3.46178032 86.62485678 3.47851562 88.38061523 C3.49974035 91.03008748 3.47880641 93.67678891 3.453125 96.32617188 C3.42841439 110.50129782 5.39408109 121.07911772 15 132 C16.2065625 133.5159375 16.2065625 133.5159375 17.4375 135.0625 C18.2109375 136.0215625 18.2109375 136.0215625 19 137 C18.278125 137.2475 17.55625 137.495 16.8125 137.75 C10.12337373 140.72294501 6.65799903 145.31379638 4 152 C3.29825735 156.20750117 3.27442007 160.3347565 3.30078125 164.59375 C3.29362595 165.78045288 3.28647064 166.96715576 3.27909851 168.18981934 C3.27134769 170.68757379 3.27627763 173.18539641 3.29321289 175.68310547 C3.31244575 179.48926345 3.27299872 183.29177144 3.22851562 187.09765625 C3.22822525 189.53385632 3.23136566 191.97005972 3.23828125 194.40625 C3.22299881 195.5346228 3.20771637 196.66299561 3.19197083 197.82556152 C3.30017377 205.21656951 4.57837946 210.71658054 10 216 C16.18307593 221.18388223 21.5965124 221.71902115 29.47729492 221.63110352 C30.60184586 221.63825882 31.72639679 221.64541412 32.88502502 221.65278625 C36.58392557 221.66962797 40.28160675 221.65029905 43.98046875 221.62890625 C46.5578064 221.62973518 49.13514399 221.63219547 51.71247864 221.63621521 C57.10496382 221.63906992 62.49700082 221.62493305 67.8894043 221.59692383 C74.11648963 221.56482778 80.34294897 221.56490993 86.57007903 221.5821386 C92.57481575 221.59801701 98.57926189 221.59116625 104.58400917 221.57420158 C107.13371582 221.56901744 109.68344049 221.56950437 112.23314476 221.57574654 C115.79278865 221.58119157 119.35136625 221.56084607 122.91088867 221.53344727 C123.9650296 221.53997314 125.01917053 221.54649902 126.10525513 221.55322266 C131.91506904 221.47838592 131.91506904 221.47838592 137.13056946 219.09165955 C144.05637053 211.34255221 140 207.51183496 140 193 C159.8 193 179.6 193 200 193 C200 186.07 200 179.14 200 172 C201.65 171.67 203.3 171.34 205 171 C211.67178797 168.72465035 215.35759607 164.93920641 219 159 C219.34836914 158.43563232 219.69673828 157.87126465 220.05566406 157.28979492 C221.97664497 152.63186319 221.37179028 147.34610374 221.37060547 142.37524414 C221.37495018 140.33588311 221.41120858 138.29874 221.44921875 136.25976562 C221.48100271 125.52208603 219.3620388 118.61953644 213 110 C212.45472656 109.61457031 211.90945312 109.22914062 211.34765625 108.83203125 C209.14433269 105.8367885 210.10188584 102.5705703 210.5 99.0625 C211.50042721 87.0964822 208.17614884 77.79208998 203.3046875 67.03125 C201.54478529 62.94237541 200.88225143 59.58987335 200.7890625 55.1484375 C200.76070312 54.21386719 200.73234375 53.27929688 200.703125 52.31640625 C200.65166889 50.37908376 200.6072202 48.4415605 200.5703125 46.50390625 C200.17141972 34.3542969 196.66985738 25.41589124 188.625 16.3125 C187.75875 15.549375 186.8925 14.78625 186 14 C185.44957031 13.50757813 184.89914063 13.01515625 184.33203125 12.5078125 C165.75052953 -2.89376212 140.46281477 2.5270516 125 19 Z " fill="#FCFCFC" transform="translate(0,0)"/>
<path d="M0 0 C1.76098633 1.55053711 1.76098633 1.55053711 3.33203125 3.52734375 C4.18764648 4.59178711 4.18764648 4.59178711 5.06054688 5.67773438 C5.63869141 6.42345703 6.21683594 7.16917969 6.8125 7.9375 C7.7087207 9.0502832 7.7087207 9.0502832 8.62304688 10.18554688 C13 15.70300893 13 15.70300893 13 18 C15.92639702 15.30149939 18.22467134 12.80570658 20.26171875 9.37890625 C26.26826466 -0.3439558 26.26826466 -0.3439558 31.12060547 -1.50927734 C39.5408435 -1.86424993 48.83668158 0.60011692 56 5 C56.61875 5.33644531 57.2375 5.67289062 57.875 6.01953125 C64.25413553 9.910254 67.68287218 16.31384022 70.14453125 23.203125 C71.18671519 27.8287085 71.36787216 32.14924097 71.375 36.875 C71.39949219 37.72191406 71.42398438 38.56882813 71.44921875 39.44140625 C71.4801336 46.1705395 70.14200119 52.46591097 65.55224609 57.62841797 C60.38587183 62.19348413 55.86840469 62.14382255 49.25 62.0625 C48.20392578 62.05573242 48.20392578 62.05573242 47.13671875 62.04882812 C45.42444197 62.0371002 43.71220967 62.01916653 42 62 C42 57.38 42 52.76 42 48 C49.34066345 47.43533358 52.38792026 48.22376192 58 53 C58.99 52.01 59.98 51.02 61 50 C59.63016497 46.83884224 59.0109362 46.0072908 56 44 C55.65942383 41.56982422 55.65942383 41.56982422 55.70703125 38.5546875 C55.71669922 37.47832031 55.72636719 36.40195313 55.73632812 35.29296875 C55.76146484 34.16503906 55.78660156 33.03710938 55.8125 31.875 C55.83280273 30.17150391 55.83280273 30.17150391 55.85351562 28.43359375 C55.88895681 25.62192613 55.93836483 22.81119583 56 20 C54.02 20 52.04 20 50 20 C50 26.93 50 33.86 50 41 C47.36 41 44.72 41 42 41 C42 36.38 42 31.76 42 27 C23.52 27 5.04 27 -14 27 C-14 31.62 -14 36.24 -14 41 C-16.31 41 -18.62 41 -21 41 C-21 34.07 -21 27.14 -21 20 C-23.31 20 -25.62 20 -28 20 C-27.97381592 20.69561035 -27.94763184 21.3912207 -27.9206543 22.10791016 C-27.81629051 25.28004085 -27.7515494 28.45180978 -27.6875 31.625 C-27.6246582 33.26662109 -27.6246582 33.26662109 -27.56054688 34.94140625 C-27.42243304 44.05691964 -27.42243304 44.05691964 -30.51953125 47.7734375 C-31.74736328 48.87558594 -31.74736328 48.87558594 -33 50 C-32.01 50.99 -31.02 51.98 -30 53 C-27.04150623 51.6752783 -27.04150623 51.6752783 -24.75073242 49.4440918 C-22.15745028 47.30502279 -20.11808601 47.66030865 -16.80078125 47.70703125 C-14.98803711 47.7215332 -14.98803711 47.7215332 -13.13867188 47.73632812 C-11.2447168 47.7740332 -11.2447168 47.7740332 -9.3125 47.8125 C-7.40114258 47.83280273 -7.40114258 47.83280273 -5.45117188 47.85351562 C-2.30060175 47.88891529 0.84975166 47.94272276 4 48 C4 52.62 4 57.24 4 62 C1.36 62 -1.28 62 -4 62 C-4.20625 61.38125 -4.4125 60.7625 -4.625 60.125 C-6.58891738 57.08985496 -8.55242821 56.9274318 -12 56 C-15.18343692 55.64048068 -15.18343692 55.64048068 -18.4921875 55.5859375 C-19.69101563 55.54726562 -20.88984375 55.50859375 -22.125 55.46875 C-23.3625 55.4378125 -24.6 55.406875 -25.875 55.375 C-27.13570312 55.33632812 -28.39640625 55.29765625 -29.6953125 55.2578125 C-32.79673137 55.16383011 -35.89814886 55.07816589 -39 55 C-42.82388439 49.20838731 -42.48109404 43.4604281 -42.4375 36.6875 C-42.45748047 35.59759766 -42.47746094 34.50769531 -42.49804688 33.38476562 C-42.49192116 23.19769844 -39.7878675 16.18104358 -32.86328125 8.72265625 C-26.98540827 3.28839632 -19.79325034 0.92942058 -12 -0.1875 C-10.80375 -0.36667969 -9.6075 -0.54585938 -8.375 -0.73046875 C-5.14929886 -0.98807683 -3.07585387 -0.9081121 0 0 Z " fill="#FA806C" transform="translate(144,103)"/>
<path d="M0 0 C1.77503906 0.03480469 1.77503906 0.03480469 3.5859375 0.0703125 C5.36871094 0.09738281 5.36871094 0.09738281 7.1875 0.125 C8.10273437 0.14820313 9.01796875 0.17140625 9.9609375 0.1953125 C9.97511719 1.22011719 9.98929688 2.24492187 10.00390625 3.30078125 C10.05082766 4.66150221 10.09907494 6.02217791 10.1484375 7.3828125 C10.15423828 8.05634766 10.16003906 8.72988281 10.16601562 9.42382812 C10.32157503 12.96712561 10.92625156 15.14041127 12.82421875 18.14453125 C17.45922195 21.17488826 21.53853629 20.92677326 26.9609375 20.8203125 C27.94578125 20.83964844 28.930625 20.85898438 29.9453125 20.87890625 C34.52905884 20.84793499 37.20201594 20.69149409 41.09765625 18.14453125 C43.37365573 14.54205828 43.7377016 11.53214795 43.7734375 7.3828125 C43.79857422 6.68994141 43.82371094 5.99707031 43.84960938 5.28320312 C43.90807013 3.58784128 43.93746797 1.89151963 43.9609375 0.1953125 C46.08566326 0.14144621 48.21077402 0.10258179 50.3359375 0.0703125 C51.51929688 0.04710937 52.70265625 0.02390625 53.921875 0 C56.9609375 0.1953125 56.9609375 0.1953125 58.9609375 2.1953125 C59.22163391 4.12400818 59.22163391 4.12400818 59.2355957 6.50561523 C59.24512772 7.39671494 59.25465973 8.28781464 59.26448059 9.20591736 C59.26356918 10.17050369 59.26265778 11.13509003 59.26171875 12.12890625 C59.26600388 13.11778336 59.270289 14.10666046 59.27470398 15.12550354 C59.28045387 17.2194848 59.28094271 19.31348603 59.27661133 21.4074707 C59.27345366 24.6163941 59.29689468 27.82439397 59.32226562 31.03320312 C59.32453872 33.065103 59.32524207 35.09700536 59.32421875 37.12890625 C59.3334285 38.09146835 59.34263824 39.05403046 59.35212708 40.04576111 C59.34589828 40.94001297 59.33966949 41.83426483 59.33325195 42.75561523 C59.33388138 43.54234116 59.3345108 44.32906708 59.3351593 45.13963318 C58.86276248 47.73460859 58.04596451 48.62089016 55.9609375 50.1953125 C53.23364258 50.53588867 53.23364258 50.53588867 49.98046875 50.48828125 C48.81708984 50.47861328 47.65371094 50.46894531 46.45507812 50.45898438 C45.24013672 50.43384766 44.02519531 50.40871094 42.7734375 50.3828125 C41.54689453 50.36927734 40.32035156 50.35574219 39.05664062 50.34179688 C36.02430086 50.30639991 32.99283754 50.2570201 29.9609375 50.1953125 C29.94675781 49.17050781 29.93257812 48.14570313 29.91796875 47.08984375 C29.87104734 45.72912279 29.82280006 44.36844709 29.7734375 43.0078125 C29.76763672 42.33427734 29.76183594 41.66074219 29.75585938 40.96679688 C29.58540337 37.08418796 29.04975801 35.30681686 26.60546875 32.23828125 C24.09348997 29.96084637 24.09348997 29.96084637 20.8359375 29.6953125 C19.8871875 29.5303125 18.9384375 29.3653125 17.9609375 29.1953125 C16.2109375 26.6953125 16.2109375 26.6953125 14.9609375 24.1953125 C11.4826099 22.4561487 7.75508497 22.59489186 3.9609375 23.1953125 C1.62900948 24.62649579 -0.03905504 26.29054349 -2.0390625 28.1953125 C-3.0290625 28.1953125 -4.0190625 28.1953125 -5.0390625 28.1953125 C-5.09690092 23.90370203 -5.1326037 19.61219105 -5.1640625 15.3203125 C-5.18082031 14.09699219 -5.19757813 12.87367188 -5.21484375 11.61328125 C-5.22128906 10.44667969 -5.22773437 9.28007812 -5.234375 8.078125 C-5.24484863 6.99934082 -5.25532227 5.92055664 -5.26611328 4.80908203 C-4.92392887 0.86991399 -3.88417549 0.24962567 0 0 Z " fill="#CB9A68" transform="translate(75.0390625,164.8046875)"/>
<path d="M0 0 C5.96792982 5.09506934 9.54283993 11.6285198 12 19 C12.06970052 21.39490986 12.08448003 23.79167691 12.0625 26.1875 C12.05347656 27.45980469 12.04445313 28.73210938 12.03515625 30.04296875 C12.02355469 31.01878906 12.01195312 31.99460938 12 33 C9.69 32.34 7.38 31.68 5 31 C5 28.69 5 26.38 5 24 C3.68386719 24.04640625 2.36773437 24.0928125 1.01171875 24.140625 C-10.15421771 24.41910909 -19.07658112 24.22413792 -28.85546875 18.2578125 C-33.62284488 15.00228879 -33.62284488 15.00228879 -39.0703125 14.296875 C-43.27880422 16.51954162 -46.33497217 20.11667374 -49 24 C-49.28875 25.2375 -49.5775 26.475 -49.875 27.75 C-50.24625 28.8225 -50.6175 29.895 -51 31 C-54.625 32.4375 -54.625 32.4375 -58 33 C-58.70034079 21.85290908 -57.21343649 13.37672834 -49.875 4.6875 C-35.22949002 -10.43897911 -17.40546898 -11.32667454 0 0 Z " fill="#636B75" transform="translate(181,18)"/>
<path d="M0 0 C2.53242254 0.97331542 4.7959151 2.00119212 7.1875 3.25 C14.73071805 7.12499323 21.48305837 9.09269115 30 9.625 C31.134375 9.69976562 32.26875 9.77453125 33.4375 9.8515625 C34.283125 9.90054688 35.12875 9.94953125 36 10 C36.11728126 13.66639248 36.18760891 17.3322952 36.25 21 C36.28351563 22.02996094 36.31703125 23.05992188 36.3515625 24.12109375 C36.44920102 31.78571739 35.31718676 37.15592228 30.25390625 43.0234375 C24.43620251 47.67222617 20.10892547 49.4921768 12.5625 49.3125 C6.9114366 48.62334593 3.20007371 46.1734054 -0.8125 42.25 C-5.98505884 34.56505544 -6.4744393 27.85595224 -6.375 18.8125 C-6.38660156 17.74580078 -6.39820313 16.67910156 -6.41015625 15.58007812 C-6.40628906 14.54947266 -6.40242187 13.51886719 -6.3984375 12.45703125 C-6.39505371 11.52866455 -6.39166992 10.60029785 -6.38818359 9.64379883 C-5.9201482 6.456154 -4.88829495 4.59397934 -3 2 C-2.01 1.34 -1.02 0.68 0 0 Z " fill="#EBCCB0" transform="translate(143,39)"/>
<path d="M0 0 C5.31350426 1.96796454 8.11094048 6.24108732 10.55957031 11.08544922 C12.32315863 15.27939896 12.38608476 19.05994196 12.29296875 23.55859375 C12.28994751 24.2592395 12.28692627 24.95988525 12.28381348 25.6817627 C12.26826832 28.26716106 12.22638569 30.85234734 12.1875 33.4375 C12.0946875 42.1309375 12.0946875 42.1309375 12 51 C27.18 51 42.36 51 58 51 C58 55.95 58 60.9 58 66 C51.29226079 66.07434827 44.58476331 66.12869647 37.87670898 66.16479492 C35.59639302 66.17984918 33.31610586 66.20029708 31.03588867 66.22631836 C27.75171791 66.26284894 24.46793115 66.27976039 21.18359375 66.29296875 C20.16978134 66.30845261 19.15596893 66.32393646 18.11143494 66.33988953 C12.27998214 66.34126528 8.1317603 65.84681904 3 63 C-0.90198151 58.88710057 -3.24109799 55.16210776 -3.2746582 49.45019531 C-3.28419022 48.55536438 -3.29372223 47.66053345 -3.30354309 46.73858643 C-3.30263168 45.77813416 -3.30172028 44.81768188 -3.30078125 43.828125 C-3.30506638 42.83174011 -3.3093515 41.83535522 -3.31376648 40.80877686 C-3.31950685 38.70065062 -3.3200122 36.59250458 -3.31567383 34.484375 C-3.31252521 31.27569264 -3.33593765 28.06794264 -3.36132812 24.859375 C-3.36360243 22.80729282 -3.36430401 20.75520818 -3.36328125 18.703125 C-3.372491 17.75076965 -3.38170074 16.79841431 -3.39118958 15.81719971 C-3.35029233 9.85909584 -2.41957745 5.45574528 0 0 Z " fill="#ACD379" transform="translate(13,149)"/>
<path d="M0 0 C3.22277081 2.11782082 5.76089243 4.80264865 8.4375 7.5625 C8.99179687 8.12582031 9.54609375 8.68914062 10.1171875 9.26953125 C11.47854485 10.65436028 12.83364859 12.04533204 14.1875 13.4375 C14.85845703 12.77041016 14.85845703 12.77041016 15.54296875 12.08984375 C20.41223489 7.53204453 20.41223489 7.53204453 23.75 7.125 C29.40848995 10.1718792 32.70175917 15.66801611 35.1875 21.4375 C35.52807617 24.87255859 35.52807617 24.87255859 35.48046875 28.5859375 C35.46922974 30.39070557 35.46922974 30.39070557 35.45776367 32.23193359 C35.43045166 33.74352051 35.40313965 35.25510742 35.375 36.8125 C35.313125 41.63875 35.25125 46.465 35.1875 51.4375 C24.9575 51.4375 14.7275 51.4375 4.1875 51.4375 C3.875 38 3.875 38 3.79956055 33.81860352 C3.54010355 25.08607655 2.5708402 17.48142069 -2.3125 10.0625 C-2.7146875 9.43601563 -3.116875 8.80953125 -3.53125 8.1640625 C-4.78372852 6.37823382 -4.78372852 6.37823382 -6.46875 4.8359375 C-7.8125 3.4375 -7.8125 3.4375 -7.8125 1.4375 C-2.44430828 -0.75857843 -2.44430828 -0.75857843 0 0 Z " fill="#B2DB7D" transform="translate(27.8125,141.5625)"/>
<path d="M0 0 C9.57 0 19.14 0 29 0 C36 14 36 14 36 23 C32.37 23.99 28.74 24.98 25 26 C25.103125 27.216875 25.20625 28.43375 25.3125 29.6875 C25.27158249 32.97843689 24.98314805 34.02888905 23.25 37 C18.34061709 40.02115871 13.61992525 39.40334392 8 39 C8 41.31 8 43.62 8 46 C10.31 46 12.62 46 15 46 C15.36923077 51.53846154 15.36923077 51.53846154 13.5 53.875 C13.005 54.24625 12.51 54.6175 12 55 C6.76890519 52.50788292 2.80969044 50.24865784 0 45 C-0.72618296 40.30694902 -0.73309021 35.59774759 -0.61206055 30.85839844 C-0.41882574 24.93621189 -0.41882574 24.93621189 -3.49609375 20.02734375 C-4.32238281 19.35832031 -5.14867188 18.68929687 -6 18 C-6.375 14.75 -6.375 14.75 -6 12 C-5.67 11.67 -5.34 11.34 -5 11 C-3.35 11 -1.7 11 0 11 C0 7.37 0 3.74 0 0 Z " fill="#E8C9AE" transform="translate(31,91)"/>
<path d="M0 0 C13.86 0 27.72 0 42 0 C42 16.17 42 32.34 42 49 C29.46 49 16.92 49 4 49 C4 44.38 4 39.76 4 35 C5.66289062 34.96261719 7.32578125 34.92523438 9.0390625 34.88671875 C11.23439708 34.82104635 13.42970858 34.75459945 15.625 34.6875 C17.26662109 34.65366211 17.26662109 34.65366211 18.94140625 34.61914062 C25.5866338 34.39763304 30.66165425 33.99299964 35.8125 29.375 C37.93713051 25.12573898 38.75128999 20.59219924 37.41015625 15.96484375 C35.49268391 12.0887516 33.47201869 10.24722506 29.34521484 8.60253906 C24.04766225 7.24147725 18.50142412 7.41232294 13.0625 7.3125 C11.80630859 7.27833984 10.55011719 7.24417969 9.25585938 7.20898438 C6.17066214 7.12686886 3.08573616 7.05759701 0 7 C0 4.69 0 2.38 0 0 Z " fill="#E3E6EA" transform="translate(137,137)"/>
<path d="M0 0 C4.53258736 2.68342933 7.80566698 5.77704276 10.80859375 10.09375 C10.80859375 11.08375 10.80859375 12.07375 10.80859375 13.09375 C10.02210449 13.1030957 9.23561523 13.11244141 8.42529297 13.12207031 C4.84410137 13.17592282 1.26419492 13.25954363 -2.31640625 13.34375 C-3.55390625 13.35792969 -4.79140625 13.37210938 -6.06640625 13.38671875 C-15.01974935 13.43789574 -15.01974935 13.43789574 -22.19140625 18.09375 C-23.32025321 20.63098098 -23.32025321 20.63098098 -23.56640625 23.34375 C-23.76363281 24.68179688 -23.76363281 24.68179688 -23.96484375 26.046875 C-24.03960937 26.72234375 -24.114375 27.3978125 -24.19140625 28.09375 C-26.75505108 28.20220031 -29.31406904 28.28124744 -31.87890625 28.34375 C-32.60013672 28.37726563 -33.32136719 28.41078125 -34.06445312 28.4453125 C-37.95093058 28.51629839 -39.76796405 28.35965829 -43.15234375 26.234375 C-45.51252955 23.75663205 -46.1062896 22.49841597 -46.19140625 19.09375 C-45.05125271 15.76830219 -44.22457912 15.11586525 -41.19140625 13.09375 C-38.73828125 12.8203125 -38.73828125 12.8203125 -35.94140625 12.71875 C-27.11520175 12.01219032 -22.44047778 7.67460587 -16.20703125 1.80078125 C-11.78794349 -1.94174075 -5.25091651 -2.17150201 0 0 Z " fill="#F6E2A1" transform="translate(56.19140625,56.90625)"/>
<path d="M0 0 C5.72214697 6.78787635 7.48019924 16.29200576 7.3359375 24.9765625 C7 27 7 27 5 30 C4.30777344 29.73445313 3.61554688 29.46890625 2.90234375 29.1953125 C-5.39412016 26.2002781 -13.26901715 24.90649549 -22 24 C-22.66 22.02 -23.32 20.04 -24 18 C-23.113125 17.34 -22.22625 16.68 -21.3125 16 C-18.66154218 13.84840865 -17.25865453 11.82845747 -15.6875 8.8125 C-14.23978842 6.30250655 -13.55316436 5.21688819 -10.828125 4.1484375 C-9.25737584 3.84558063 -7.67834012 3.58248288 -6.09375 3.36328125 C-3.46596665 2.90734123 -1.91251523 1.82936239 0 0 Z " fill="#626A74" transform="translate(197,72)"/>
<path d="M0 0 C2.49361571 1.20381448 4.68143083 2.45428722 7 4 C8.258125 4 9.51625 4 10.8125 4 C12.94140625 4.1953125 12.94140625 4.1953125 15 5 C16.8886937 7.40066306 18.22296886 9.82046071 19.578125 12.5546875 C21.08695148 15.14953743 22.50085859 16.38730618 25 18 C24.125 22.875 24.125 22.875 23 24 C21.57544573 24.27207871 20.14048482 24.49025873 18.703125 24.68359375 C17.8265625 24.80669922 16.95 24.92980469 16.046875 25.05664062 C14.19815362 25.3083869 12.3491977 25.55841735 10.5 25.80664062 C6.02698694 26.43770168 2.16106497 27.16563739 -2 29 C-2.99 29 -3.98 29 -5 29 C-7.29114419 19.5632081 -4.14022337 11.81062673 -1 3 C-0.67 2.01 -0.34 1.02 0 0 Z " fill="#626A75" transform="translate(118,72)"/>
<path d="M0 0 C1.875 1.125 1.875 1.125 3.1875 3.625 C4.0228125 4.8625 4.0228125 4.8625 4.875 6.125 C7.19531805 6.53934251 9.53139085 6.87389902 11.875 7.125 C14.05390019 8.72152134 14.77914847 9.60627407 15.2734375 12.28125 C15.26570313 13.0546875 15.25796875 13.828125 15.25 14.625 C15.25773437 15.3984375 15.26546875 16.171875 15.2734375 16.96875 C14.77267993 19.67873217 14.02115467 20.43132801 11.875 22.125 C9.7902832 22.46557617 9.7902832 22.46557617 7.42578125 22.41796875 C6.57822266 22.40830078 5.73066406 22.39863281 4.85742188 22.38867188 C3.53581055 22.3509668 3.53581055 22.3509668 2.1875 22.3125 C1.29482422 22.29896484 0.40214844 22.28542969 -0.51757812 22.27148438 C-2.72066166 22.23614079 -4.92252582 22.18680493 -7.125 22.125 C-7.26048815 19.39416098 -7.35929855 16.67008193 -7.4375 13.9375 C-7.47939453 13.16857422 -7.52128906 12.39964844 -7.56445312 11.60742188 C-7.65795135 7.25040451 -7.52851427 5.63946419 -4.73828125 2.08203125 C-2.125 0.125 -2.125 0.125 0 0 Z " fill="#ECCCB1" transform="translate(84.125,192.875)"/>
<path d="M0 0 C4.95 0.33 9.9 0.66 15 1 C15 2.65 15 4.3 15 6 C14.38125 6.268125 13.7625 6.53625 13.125 6.8125 C10.7004767 7.95556848 10.7004767 7.95556848 9 11 C8.36682226 14.08674149 8.39100555 16.90935316 9 20 C10.32071573 21.95831666 10.32071573 21.95831666 12 23.75 C15.94706266 28.30857941 15.48794425 32.63354896 15.2109375 38.4375 C15.14132813 39.283125 15.07171875 40.12875 15 41 C7.51344193 35.31021587 1.94364848 28.16712611 0.234375 18.71484375 C-0.30363827 12.48285673 -0.10503573 6.24962622 0 0 Z " fill="#5F6671" transform="translate(10,90)"/>
<path d="M0 0 C1.2219104 0.00607269 1.2219104 0.00607269 2.46850586 0.01226807 C3.30438232 0.01035461 4.14025879 0.00844116 5.00146484 0.00646973 C6.77010397 0.00510771 8.53875309 0.0088053 10.30737305 0.01715088 C13.02016579 0.02785031 15.7322963 0.01725631 18.44506836 0.00445557 C20.16121566 0.00577716 21.87736255 0.00833955 23.59350586 0.01226807 C24.40811279 0.0082196 25.22271973 0.00417114 26.06201172 0 C31.80108658 0.04797379 31.80108658 0.04797379 34.03100586 2.27789307 C33.78100586 4.84039307 33.78100586 4.84039307 33.03100586 7.27789307 C29.69945335 8.94366932 25.96564527 8.39797162 22.30444336 8.37554932 C21.01021957 8.3734269 21.01021957 8.3734269 19.68984985 8.3712616 C16.92853355 8.36565494 14.16729774 8.35310134 11.40600586 8.34039307 C9.53621536 8.33537892 7.6664236 8.33081587 5.79663086 8.32672119 C1.20805809 8.31568335 -3.38045437 8.29841426 -7.96899414 8.27789307 C-8.09399414 5.40289307 -8.09399414 5.40289307 -7.96899414 2.27789307 C-5.36593522 -0.32516585 -3.54620875 0.02964329 0 0 Z " fill="#E6C566" transform="translate(46.968994140625,76.72210693359375)"/>
<path d="M0 0 C7.26 0 14.52 0 22 0 C22.37042355 11.48312994 22.37042355 11.48312994 20.65625 13.875 C18.38805039 15.41566389 16.67823455 15.21715415 14 15 C14 12.69 14 10.38 14 8 C12.02 8 10.04 8 8 8 C8 10.31 8 12.62 8 15 C3.5331992 15.36217304 3.5331992 15.36217304 1.34375 13.875 C-1.41279447 10.02865888 -0.14501351 4.49541891 0 0 Z " fill="#A16E3F" transform="translate(91,165)"/>
<path d="M0 0 C3.25 -0.375 3.25 -0.375 7 0 C8.36176581 1.98075027 9.69593116 3.98079663 11 6 C14.53135195 6.50447885 16.62409801 6.12530066 20 5 C20.33 3.35 20.66 1.7 21 0 C23.31 0 25.62 0 28 0 C27.61124961 5.44250545 25.83447004 8.16552996 22 12 C18.04906197 14.28738518 14.50696174 14.54394366 10 14 C4.88896186 11.54964632 1.98364173 8.36750116 0 3 C0 2.01 0 1.02 0 0 Z " fill="#080706" transform="translate(144,67)"/>
<path d="M0 0 C5.94 0 11.88 0 18 0 C19 5 19 5 17.19921875 7.89453125 C16.37035156 8.85746094 15.54148438 9.82039063 14.6875 10.8125 C13.86636719 11.78832031 13.04523438 12.76414062 12.19921875 13.76953125 C11.47347656 14.50558594 10.74773437 15.24164063 10 16 C9.34 16 8.68 16 8 16 C6.08984375 13.953125 6.08984375 13.953125 3.9375 11.25 C3.22464844 10.36828125 2.51179687 9.4865625 1.77734375 8.578125 C0.16345075 6.23709339 -0.70211057 4.79651304 -1 2 C-0.67 1.34 -0.34 0.68 0 0 Z " fill="#E8C9AE" transform="translate(149,94)"/>
<path d="M0 0 C8.14864865 -0.60810811 8.14864865 -0.60810811 12.0625 2.1875 C14 5 14 5 14.5625 7.5625 C13.76478539 11.01926331 13.01452324 12.0620922 10 14 C6.59270118 14.33645741 3.43939628 14.18102086 0 14 C0 9.38 0 4.76 0 0 Z " fill="#ECCCB1" transform="translate(155,151)"/>
<path d="M0 0 C0.33 0 0.66 0 1 0 C1 16.17 1 32.34 1 49 C-11.54 49 -24.08 49 -37 49 C-37 44.71 -37 40.42 -37 36 C-36.67 36 -36.34 36 -36 36 C-36 39.96 -36 43.92 -36 48 C-24.12 48 -12.24 48 0 48 C-0.33 40.74 -0.66 33.48 -1 26 C-1.33 26 -1.66 26 -2 26 C-2 23.03 -2 20.06 -2 17 C-1.67 17 -1.34 17 -1 17 C-0.67 11.39 -0.34 5.78 0 0 Z " fill="#ECEFF3" transform="translate(178,137)"/>
<path d="M0 0 C2.31 0 4.62 0 7 0 C7 4.62 7 9.24 7 14 C4.69 14 2.38 14 0 14 C0 9.38 0 4.76 0 0 Z " fill="#F57D6A" transform="translate(186,172)"/>
<path d="M0 0 C5.2 1.3 5.2 1.3 7 4 C7.6431853 10.00306279 7.6431853 10.00306279 5.75 12.9375 C4 14 4 14 0 14 C0 9.38 0 4.76 0 0 Z " fill="#E2C4A9" transform="translate(186,56)"/>
<path d="M0 0 C0 4.62 0 9.24 0 14 C-1.65 13.67 -3.3 13.34 -5 13 C-7.32749345 9.50875983 -7.50299316 8.10777749 -7 4 C-4.65790677 0.93105025 -3.92712226 0 0 0 Z " fill="#E7C8AD" transform="translate(130,56)"/>
<path d="M0 0 C0.99 0.33 1.98 0.66 3 1 C2.34 1 1.68 1 1 1 C0.566875 1.928125 0.566875 1.928125 0.125 2.875 C-1 5 -1 5 -3 7 C-3.30059943 9.36509361 -3.49515012 11.74441881 -3.625 14.125 C-3.74875 16.39375 -3.8725 18.6625 -4 21 C1.94 21 7.88 21 14 21 C14 21.33 14 21.66 14 22 C7.73 22 1.46 22 -5 22 C-5.103125 19.298125 -5.20625 16.59625 -5.3125 13.8125 C-5.35802002 12.97050049 -5.40354004 12.12850098 -5.45043945 11.26098633 C-5.5306849 6.90547078 -5.37755408 5.45716238 -2.48046875 1.94921875 C-1.66191406 1.30597656 -0.84335938 0.66273438 0 0 Z " fill="#B39B86" transform="translate(82,193)"/>
<path d="M0 0 C1.67542976 0.28604898 3.34385343 0.61781233 5 1 C4.67 2.65 4.34 4.3 4 6 C2.125 6.625 2.125 6.625 0 7 C-0.66 6.34 -1.32 5.68 -2 5 C-1.46428571 1.46428571 -1.46428571 1.46428571 0 0 Z " fill="#151310" transform="translate(167,53)"/>
<path d="M0 0 C1.67542976 0.28604898 3.34385343 0.61781233 5 1 C4.67 2.65 4.34 4.3 4 6 C2.125 6.625 2.125 6.625 0 7 C-0.66 6.34 -1.32 5.68 -2 5 C-1.46428571 1.46428571 -1.46428571 1.46428571 0 0 Z " fill="#13100E" transform="translate(146,53)"/>
<path d="M0 0 C1.2065625 0.0309375 1.2065625 0.0309375 2.4375 0.0625 C2.81968767 1.71864657 3.15145102 3.38707024 3.4375 5.0625 C2.4375 6.0625 2.4375 6.0625 -0.125 6.125 C-1.3315625 6.0940625 -1.3315625 6.0940625 -2.5625 6.0625 C-2.94468767 4.40635343 -3.27645102 2.73792976 -3.5625 1.0625 C-2.5625 0.0625 -2.5625 0.0625 0 0 Z " fill="#14110F" transform="translate(52.5625,98.9375)"/>
</svg>
